<svg xmlns="http://www.w3.org/2000/svg" xmlns:xlink="http://www.w3.org/1999/xlink" width="2122.001" height="189.182" viewBox="0 0 2122.001 189.182">
  <defs>
    <clipPath id="clip-path">
      <rect y="884" width="2122.001" height="189.182" fill="none"/>
    </clipPath>
    <linearGradient id="linear-gradient" x1="0.971" y1="0.03" x2="-0.03" y2="1.029" gradientUnits="objectBoundingBox">
      <stop offset="0" stop-color="#fff"/>
      <stop offset="1" stop-color="#fff" stop-opacity="0"/>
    </linearGradient>
  </defs>
  <g id="Group_123" data-name="Group 123" transform="translate(-9382.499 -6923.21)">
    <g id="Scroll_Group_1" data-name="Scroll Group 1" transform="translate(9382.499 6039.21)" clip-path="url(#clip-path)" style="isolation: isolate">
      <g id="Group_122" data-name="Group 122" transform="translate(-9382.499 -6039.21)">
        <g id="Group_43" data-name="Group 43" transform="matrix(0.809, 0.588, -0.588, 0.809, 10068.145, 6039.21)">
          <path id="Path_2734" data-name="Path 2734" d="M1661.765,0,2.221,859.662,0,885.046Z" transform="translate(17.437 231.273) rotate(-8)" opacity="0.32" fill="url(#linear-gradient)"/>
          <path id="Path_2735" data-name="Path 2735" d="M1680.573,0,2.513,903.62,0,932.34Z" transform="translate(0 243.223) rotate(-8)" opacity="0.32" fill="url(#linear-gradient)"/>
        </g>
      </g>
    </g>
    <g id="Group_124" data-name="Group 124" transform="translate(11228.701 6613.434) rotate(36)">
      <path id="Path_6" data-name="Path 6" d="M21.437,0,13.419,7.842.852,20.134S-3.956,32.3,9.267,32.906L26.7,20.134Z" transform="matrix(0.588, 0.809, -0.809, 0.588, 311.08, 233.91)" fill="#686c6f" stroke="#1f1f1f" stroke-width="1"/>
      <path id="Path_7" data-name="Path 7" d="M5.259,0l8.018,7.842L25.843,20.134s4.808,12.17-8.414,12.771L0,20.134Z" transform="matrix(0.588, 0.809, -0.809, 0.588, 336.347, 269.279)" fill="#686c6f" stroke="#1f1f1f" stroke-width="1"/>
      <path id="Path_4" data-name="Path 4" d="M.081,18.905S-.1,8.111.081,5.653,1.122,1,3.405.394a20.066,20.066,0,0,1,7.9,0,5.649,5.649,0,0,1,3.786,5.259c.057,2.9,0,8.414,0,8.414Z" transform="matrix(0.588, 0.809, -0.809, 0.588, 361.879, 182.602)" fill="#f8d293" stroke="#1f1f1f" stroke-width="1"/>
      <path id="Path_5" data-name="Path 5" d="M15.038,18.905s.181-10.794,0-13.252S14,1,11.713.394a20.066,20.066,0,0,0-7.9,0A5.649,5.649,0,0,0,.025,5.653c-.057,2.9,0,8.414,0,8.414Z" transform="matrix(0.588, 0.809, -0.809, 0.588, 406.603, 245.059)" fill="#f8d293" stroke="#1f1f1f" stroke-width="1"/>
      <path id="Path_3" data-name="Path 3" d="M0,0,55.043,21.386S61.179,23.665,61.7,27.7s1.14,7.647,0,9.291-2.98,2.8-6.661,2.279S0,29.625,0,29.625Z" transform="matrix(0.588, 0.809, -0.809, 0.588, 392.781, 235.479)" fill="#686c6f" stroke="#1f1f1f" stroke-width="1"/>
      <path id="Path_2" data-name="Path 2" d="M63.488,0,7.306,21.712S1.17,23.99.645,28.022s-1.14,7.647,0,9.291,2.98,2.8,6.661,2.279S63.488,29.45,63.488,29.45Z" transform="matrix(0.588, 0.809, -0.809, 0.588, 339.481, 159.733)" fill="#686c6f" stroke="#1f1f1f" stroke-width="1"/>
      <g id="Path_1" data-name="Path 1" transform="matrix(0.616, 0.788, -0.788, 0.616, 423.061, 171.48)" fill="#fff">
        <path d="M 14.54361248016357 168.1388092041016 C 14.54345703125 168.1388092041016 14.54354572296143 168.1388092041016 14.54339027404785 168.1388092041016 C 14.42693328857422 168.1387939453125 14.31025981903076 168.1333312988281 14.19660758972168 168.1225891113281 C 11.55299854278564 167.8723907470703 9.586281776428223 165.1233520507813 9.503846168518066 165.0064544677734 L 9.422780990600586 164.8914794921875 L 9.388890266418457 164.7549438476563 C 9.054520606994629 163.4077606201172 1.191324830055237 131.7144775390625 0.4468899965286255 127.6106338500977 C -0.3025230467319489 123.4807662963867 -0.7313708662986755 114.0364837646484 -0.7492621541023254 113.6364593505859 L -0.7505447864532471 113.6073760986328 L -0.7495882511138916 113.5782623291016 C -0.7195665240287781 112.6673278808594 2.252129077911377 22.43235206604004 2.217042207717896 17.81780815124512 C 2.199498653411865 15.51041698455811 2.558868169784546 13.42835140228271 3.315672636032104 11.45261287689209 C 3.950781345367432 9.794526100158691 4.878194332122803 8.171634674072266 6.234259605407715 6.34528636932373 C 7.434520244598389 4.728721141815186 9.54015064239502 2.955069065093994 11.86684608459473 1.600786566734314 C 14.4712381362915 0.08485177904367447 17.0558032989502 -0.7499960660934448 19.14445495605469 -0.7499960660934448 C 19.25839042663574 -0.7499960660934448 19.37249946594238 -0.7475395202636719 19.48362922668457 -0.742669939994812 C 21.74471664428711 -0.6438003778457642 24.10567283630371 0.1348952502012253 26.31126022338867 1.509264826774597 C 28.54219436645508 2.899416923522949 30.61275863647461 4.902503967285156 32.29910659790039 7.302003860473633 C 35.76076126098633 12.22746086120605 35.753173828125 17.78478622436523 35.75115203857422 18.0189380645752 L 35.7510871887207 18.02626419067383 L 35.75086975097656 18.0335693359375 C 35.72543334960938 18.93754768371582 33.20475769042969 108.5032424926758 33.00852203369141 114.8475723266602 C 32.86784744262695 119.3879623413086 31.85360717773438 124.1872177124023 31.30873870849609 126.7655715942383 C 31.15392875671387 127.4980773925781 30.99415588378906 128.2541351318359 30.9715747833252 128.4854736328125 C 30.99522590637207 128.6663818359375 30.94849395751953 128.859375 30.84665107727051 129.2430419921875 C 30.77143287658691 129.5264129638672 30.6556510925293 129.9367370605469 30.50251960754395 130.4626770019531 C 30.21982383728027 131.4335327148438 29.7978687286377 132.8396301269531 29.24834632873535 134.6419677734375 C 28.32391166687012 137.6739349365234 27.02523803710938 141.8714599609375 25.38838958740234 147.117919921875 C 22.6019115447998 156.0492858886719 19.76262855529785 165.0471954345703 19.7342586517334 165.1370544433594 L 19.68521690368652 165.29248046875 L 19.57608604431152 165.4135284423828 C 19.47576522827148 165.5247955322266 17.08982849121094 168.1388092041016 14.54361248016357 168.1388092041016 Z" stroke="none"/>
        <path d="M 14.54343223571777 167.3887939453125 C 16.78543281555176 167.3889312744141 19.01904296875 164.9113311767578 19.01904296875 164.9113311767578 C 19.01904296875 164.9113311767578 30.35923767089844 128.9782257080078 30.2255859375 128.5763549804688 C 30.09221649169922 128.1745910644531 32.06008529663086 121.2410278320313 32.25886917114258 114.8243713378906 C 32.45734786987305 108.4077224731445 35.00117111206055 18.01248168945313 35.00117111206055 18.01248168945313 C 35.00117111206055 18.01248168945313 35.04851913452148 12.51837348937988 31.68549919128418 7.733242988586426 C 28.3224983215332 2.948112726211548 23.73769378662109 0.1940474361181259 19.45084571838379 0.006612646859139204 C 19.34985733032227 0.002194203203544021 19.24727249145508 2.337911837457796e-06 19.14444923400879 2.337911837457796e-06 C 14.88290596008301 2.337911837457796e-06 9.107824325561523 3.73314380645752 6.836411952972412 6.792395114898682 C 4.510216236114502 9.92533016204834 2.931411743164063 13.12887382507324 2.967020511627197 17.81211280822754 C 3.002629041671753 22.49524307250977 -1.302304440287116e-06 113.6029586791992 -1.302304440287116e-06 113.6029586791992 C -1.302304440287116e-06 113.6029586791992 0.4358465373516083 123.3491973876953 1.184846520423889 127.4767684936523 C 1.933563947677612 131.604248046875 10.11680316925049 164.5742645263672 10.11680316925049 164.5742645263672 C 10.11680316925049 164.5742645263672 11.93673801422119 167.1553497314453 14.2672815322876 167.3759155273438 C 14.35918235778809 167.3846130371094 14.4514045715332 167.3887939453125 14.54343223571777 167.3887939453125 M 14.54360771179199 168.8888092041016 L 14.54343318939209 168.8888092041016 L 14.54308605194092 168.8888092041016 C 14.40312957763672 168.8887634277344 14.26280307769775 168.8822021484375 14.1259765625 168.8692474365234 C 11.19312953948975 168.5916748046875 9.117868423461914 165.7605743408203 8.890912055969238 165.4386596679688 L 8.728759765625 165.2086944580078 L 8.660977363586426 164.9356079101563 C 8.32636833190918 163.5874786376953 0.4575856626033783 131.8716278076172 -0.2910665273666382 127.7444839477539 C -1.049414396286011 123.5654373168945 -1.480522990226746 114.0720443725586 -1.498501300811768 113.6699829101563 L -1.501109957695007 113.6117630004883 L -1.499197006225586 113.5535507202148 C -1.469175219535828 112.6427841186523 1.502042174339294 22.42302513122559 1.467063903808594 17.82352638244629 C 1.448803067207336 15.42078685760498 1.824390053749084 13.24909114837646 2.615281343460083 11.18432998657227 C 3.275542259216309 9.46065616607666 4.234150886535645 7.780938625335693 5.632085800170898 5.898178100585938 C 6.889824867248535 4.20419979095459 9.07954216003418 2.355373620986938 11.48956394195557 0.9525908827781677 C 14.20673751831055 -0.6289743185043335 16.92530250549316 -1.499996066093445 19.14445495605469 -1.499996066093445 C 19.26915168762207 -1.499996066093445 19.3942813873291 -1.497300386428833 19.5163459777832 -1.491952538490295 C 21.90619468688965 -1.387474298477173 24.39297676086426 -0.5697786808013916 26.70788955688477 0.8727213144302368 C 29.02343368530273 2.315612554550171 31.16904258728027 4.389699459075928 32.91273880004883 6.870743274688721 C 36.51123809814453 11.99093914031982 36.50321578979492 17.78141784667969 36.50110626220703 18.02541732788086 L 36.50099945068359 18.04004669189453 L 36.50058746337891 18.05467796325684 C 36.47515106201172 18.95865631103516 33.95443344116211 108.5254135131836 33.75815200805664 114.8707427978516 C 33.61543273925781 119.4778060913086 32.59223937988281 124.3195037841797 32.04251861572266 126.9206314086914 C 31.90829849243164 127.5558166503906 31.77001953125 128.2101593017578 31.72842788696289 128.4837341308594 C 31.75036811828613 128.8598785400391 31.60734939575195 129.3510284423828 31.22260665893555 130.6723480224609 C 30.93904304504395 131.6462249755859 30.51617240905762 133.0553741455078 29.96573829650879 134.8607025146484 C 29.04082489013672 137.8941955566406 27.74167251586914 142.0932922363281 26.10436820983887 147.3412933349609 C 23.31752014160156 156.2738037109375 20.47784614562988 165.2729187011719 20.44949913024902 165.3627624511719 L 20.35139083862305 165.6736297607422 L 20.13312911987305 165.9157257080078 C 19.8587818145752 166.2200469970703 17.37110710144043 168.8888092041016 14.54360771179199 168.8888092041016 Z" stroke="none" fill="#1f1f1f"/>
      </g>
      <path id="Path_10" data-name="Path 10" d="M5.5,0C3.574-.122.281,4.1.018,8.307c-.239,3.824,2.022,24.651,3.151,25.378a3.637,3.637,0,0,0,4.174.127c1.653-1,3.573-21.471,3.412-25.506S7.418.128,5.5,0Z" transform="matrix(0.588, 0.809, -0.809, 0.588, 325.362, 261.169)" fill="#6a8cc3"/>
      <path id="Path_13" data-name="Path 13" d="M0,4.994v4.9s10.544-5.184,20.737,0v-4.9S16.4.1,10.176,0,0,4.994,0,4.994Z" transform="matrix(0.588, 0.809, -0.809, 0.588, 422.194, 183.386)" fill="#6a8cc3"/>
      <path id="Path_23" data-name="Path 23" d="M389.138,201.159l-4.4,3.2a25.113,25.113,0,0,1,14.7,11.67l6.21-.659s-3.314-6.121-7.611-9.552A27.146,27.146,0,0,0,389.138,201.159Z" transform="translate(-0.181 -0.249)" fill="#ff709f"/>
      <path id="Path_24" data-name="Path 24" d="M401.535,219.756l5.754-.706a16.187,16.187,0,0,1,1.153,3.293,10.007,10.007,0,0,1,.432,3.393l-5.181,3.816a31.107,31.107,0,0,0-.562-4.623C402.731,223.458,401.535,219.756,401.535,219.756Z" transform="translate(0.144 0.198)" fill="#ff709f"/>
    </g>
  </g>
</svg>
