<svg xmlns="http://www.w3.org/2000/svg" xmlns:xlink="http://www.w3.org/1999/xlink" width="2122.001" height="189.182" viewBox="0 0 2122.001 189.182">
  <defs>
    <clipPath id="clip-path">
      <rect y="884" width="2122.001" height="189.182" fill="none"/>
    </clipPath>
    <linearGradient id="linear-gradient" x1="0.971" y1="0.03" x2="-0.03" y2="1.029" gradientUnits="objectBoundingBox">
      <stop offset="0" stop-color="#fff"/>
      <stop offset="1" stop-color="#fff" stop-opacity="0"/>
    </linearGradient>
  </defs>
  <g id="Group_123" data-name="Group 123" transform="translate(-9382.499 -6923.21)">
    <g id="Scroll_Group_1" data-name="Scroll Group 1" transform="translate(9382.499 6039.21)" clip-path="url(#clip-path)" style="isolation: isolate">
      <g id="Group_122" data-name="Group 122" transform="translate(-9382.499 -6039.21)">
        <g id="Group_43" data-name="Group 43" transform="matrix(0.809, 0.588, -0.588, 0.809, 10068.145, 6039.21)">
          <path id="Path_2734" data-name="Path 2734" d="M1661.765,0,2.221,859.662,0,885.046Z" transform="translate(17.437 231.273) rotate(-8)" opacity="0.32" fill="url(#linear-gradient)"/>
          <path id="Path_2735" data-name="Path 2735" d="M1680.573,0,2.513,903.62,0,932.34Z" transform="translate(0 243.223) rotate(-8)" opacity="0.32" fill="url(#linear-gradient)"/>
        </g>
        <g id="Group_42" data-name="Group 42" transform="translate(11390.1 6922.272) rotate(36)">
          <path id="Path_6" data-name="Path 6" d="M18.873,0,11.814,6.9.75,17.726S-3.483,28.441,8.158,28.97L23.5,17.726Z" transform="matrix(0.588, 0.809, -0.809, 0.588, 23.437, 65.305)" fill="#8faddc"/>
          <path id="Path_7" data-name="Path 7" d="M4.63,0l7.059,6.9L22.752,17.726s4.233,10.715-7.408,11.244L0,17.726Z" transform="matrix(0.588, 0.809, -0.809, 0.588, 45.682, 96.443)" fill="#8faddc"/>
          <path id="Path_4" data-name="Path 4" d="M.071,16.644s-.16-9.5,0-11.667S.988.883,3,.347a17.666,17.666,0,0,1,6.956,0,4.973,4.973,0,0,1,3.334,4.63c.05,2.55,0,7.408,0,7.408Z" transform="matrix(0.588, 0.809, -0.809, 0.588, 68.16, 20.133)" fill="#f8d293"/>
          <path id="Path_5" data-name="Path 5" d="M13.239,16.644s.16-9.5,0-11.667S12.322.883,10.312.347a17.666,17.666,0,0,0-6.956,0A4.973,4.973,0,0,0,.022,4.977c-.05,2.55,0,7.408,0,7.408Z" transform="matrix(0.588, 0.809, -0.809, 0.588, 107.534, 75.12)" fill="#f8d293"/>
          <path id="Path_3" data-name="Path 3" d="M0,0,48.459,18.828s5.4,2.006,5.865,5.556,1,6.733,0,8.179S51.7,35.033,48.459,34.57,0,26.082,0,26.082Z" transform="matrix(0.588, 0.809, -0.809, 0.588, 95.365, 66.685)" fill="#aecce1"/>
          <path id="Path_2" data-name="Path 2" d="M55.894,0,6.432,19.115S1.03,21.121.567,24.671s-1,6.733,0,8.179,2.623,2.469,5.864,2.006,49.462-8.929,49.462-8.929Z" transform="matrix(0.588, 0.809, -0.809, 0.588, 48.441, 0)" fill="#aecce1"/>
          <path id="Path_1" data-name="Path 1" d="M28.4,101.09c.175-5.649,2.414-85.232,2.414-85.232A17.18,17.18,0,0,0,27.9,6.808C24.935,2.6,20.9.171,17.124.006S8.067,3.222,6.019,5.98a15.025,15.025,0,0,0-3.407,9.7C2.643,19.8,0,100.015,0,100.015s.384,8.58,1.043,12.214,7.864,32.66,7.864,32.66,1.6,2.272,3.654,2.467,4.183-2.17,4.183-2.17,9.984-31.635,9.866-31.989S28.225,106.739,28.4,101.09Z" transform="matrix(0.616, 0.788, -0.788, 0.616, 122.023, 10.341)" fill="#dfeef7"/>
          <path id="Path_10" data-name="Path 10" d="M4.838,0C3.146-.108.247,3.61.015,7.314-.2,10.68,1.83,29.8,2.824,30.444a3.2,3.2,0,0,0,3.674.112C7.954,29.672,9.61,10.866,9.468,7.314S6.53.112,4.838,0Z" transform="matrix(0.588, 0.809, -0.809, 0.588, 36.063, 88.95)" fill="#ff709f"/>
          <path id="Path_13" data-name="Path 13" d="M0,4.4V8.707s9.687-4.564,19.051,0V4.4S15.067.086,9.349,0,0,4.4,0,4.4Z" transform="matrix(0.588, 0.809, -0.809, 0.588, 121.067, 20.22)" fill="#6a8cc3"/>
          <path id="Path_23" data-name="Path 23" d="M4.152,0,0,2.992a22.354,22.354,0,0,1,13.478,10.25l5.468-.58s-2.917-5.389-6.7-8.41A26.065,26.065,0,0,0,4.152,0Z" transform="translate(87.745 36.318)" fill="#ff709f"/>
          <path id="Path_24" data-name="Path 24" d="M0,.622,5.066,0A14.261,14.261,0,0,1,6.081,2.9a11.173,11.173,0,0,1,.287,3.486L2.14,9.366s-.384-2.9-.736-4.191S0,.622,0,.622Z" transform="translate(103.073 52.221)" fill="#ff709f"/>
        </g>
      </g>
    </g>
  </g>
</svg>
